<?xml version="1.0" encoding="UTF-8"?>
<svg version="1.1" xmlns="http://www.w3.org/2000/svg" width="500" height="500">
<path d="M0 0 C165 0 330 0 500 0 C500 165 500 330 500 500 C335 500 170 500 0 500 C0 335 0 170 0 0 Z " fill="#F5F5F5" transform="translate(0,0)"/>
<path d="M0 0 C165 0 330 0 500 0 C500 165 500 330 500 500 C335 500 170 500 0 500 C0 335 0 170 0 0 Z M212 44 C210.46327637 44.8357959 210.46327637 44.8357959 208.89550781 45.68847656 C197.19733181 52.07880332 185.56298895 58.55396455 174.18359375 65.5 C168.23187065 69.09465059 162.16703569 72.49776576 156.125 75.9375 C147.15434794 81.04666062 138.20781357 86.18972806 129.32421875 91.44921875 C124.96147961 94.03027219 120.57685857 96.57317557 116.19287109 99.11791992 C112.08661701 101.50474816 107.98707623 103.90288774 103.89013672 106.30566406 C102.03906386 107.39085123 100.18664596 108.47374932 98.33251953 109.55371094 C78.30042836 121.25497125 63.50579251 134.70760163 56.95956421 157.64570618 C55.38797847 164.88549356 55.7042231 172.31030465 55.70947266 179.68041992 C55.70348034 181.36344702 55.69667319 183.04647138 55.68911743 184.72949219 C55.67151993 189.28142181 55.66676465 193.83327614 55.66548586 198.3852365 C55.66405994 201.23557988 55.65978198 204.08590438 55.65449142 206.93624306 C55.63601051 216.89866974 55.62781822 226.86104307 55.62939453 236.82348633 C55.6305948 246.0796598 55.60950991 255.33559968 55.5779072 264.59171408 C55.55166984 272.56318472 55.54103038 280.53457942 55.54230535 288.50609285 C55.54281287 293.25613623 55.53724675 298.00597191 55.51594925 302.75597191 C55.4964411 307.22867169 55.4965274 311.70096833 55.51098251 316.17368317 C55.51305635 317.80456196 55.50845597 319.43546683 55.4962616 321.06630135 C55.35595499 341.14960552 61.04616487 358.50291193 75.05859375 373.18359375 C76.03372069 374.12794314 77.01455197 375.06642595 78 376 C78.5460791 376.53439697 79.0921582 377.06879395 79.65478516 377.61938477 C85.60652605 383.16957567 92.47499767 387.05502741 99.5 391.0625 C100.78989436 391.80714768 102.07927528 392.55268541 103.36816406 393.29907227 C105.98324762 394.81204304 108.60082953 396.32053486 111.22070312 397.82519531 C116.74684229 401.0011979 122.24726996 404.22117216 127.75 407.4375 C129.71346605 408.58216097 131.67700527 409.72669644 133.640625 410.87109375 C138.26691472 413.56976275 142.8856932 416.28090479 147.5 419 C163.86417709 428.63930888 180.27671543 438.19572325 196.74829102 447.65039062 C201.52656412 450.39716502 206.29115342 453.1564189 210.99609375 456.02734375 C218.76269904 460.75765996 226.07080772 464.79543234 235 467 C235.73863281 467.18820312 236.47726563 467.37640625 237.23828125 467.5703125 C267.94202391 472.34741532 291.81757519 454.91037454 317 440 C317.92184082 439.4544043 318.84368164 438.90880859 319.79345703 438.34667969 C325.17653464 435.16028369 325.17653464 435.16028369 330.55859375 431.97216797 C338.89465345 427.04129311 347.28462489 422.20562465 355.67919922 417.37524414 C362.28901756 413.57014315 368.88077728 409.73796252 375.44165039 405.84912109 C379.72555853 403.3169409 384.0349729 400.83356523 388.359375 398.37109375 C412.85586958 384.40604741 433.21088666 372.30871044 442 344 C442.51708527 342.42523895 442.51708527 342.42523895 443.0446167 340.81866455 C444.72546946 333.95601978 444.27821614 326.78914961 444.25878906 319.76855469 C444.26150215 318.12183986 444.26506486 316.47512625 444.26940918 314.82841492 C444.27850053 310.37158303 444.27500161 305.91484411 444.26865101 301.45801067 C444.26357074 296.78045599 444.2682884 292.10290902 444.27142334 287.425354 C444.27505852 279.56724629 444.27027714 271.70917621 444.26074219 263.85107422 C444.24987366 254.78978536 444.25337337 245.72858663 444.264395 236.66729999 C444.27349876 228.86828175 444.27473763 221.06929051 444.26951766 213.27026868 C444.26641295 208.62094731 444.26594683 203.97166814 444.27259064 199.32234955 C444.27840799 194.94578697 444.27428764 190.56933936 444.26280212 186.19278908 C444.2601782 184.59494275 444.26088137 182.9970866 444.26532745 181.39924431 C444.31175831 163.00324407 441.85828058 146.73883456 430 132 C429.34257812 131.16726562 428.68515625 130.33453125 428.0078125 129.4765625 C418.95815629 118.70316225 406.4823241 111.89249012 394.4375 104.9375 C393.17818822 104.20517298 391.91907814 103.47249901 390.66015625 102.73950195 C378.53386105 95.68980441 366.35222148 88.7356892 354.16113281 81.79882812 C349.56339891 79.18250874 344.96862082 76.56103291 340.375 73.9375 C339.54661621 73.4645752 338.71823242 72.99165039 337.86474609 72.50439453 C332.05000299 69.18120449 326.24819375 65.83601761 320.44995117 62.48413086 C314.96994305 59.31700083 309.48605519 56.15664241 304 53 C302.93765137 52.38850098 301.87530273 51.77700195 300.78076172 51.14697266 C297.71128779 49.38383951 294.63764808 47.62821405 291.5625 45.875 C290.65838379 45.35494385 289.75426758 44.8348877 288.82275391 44.29907227 C261.77217316 28.93661125 239.19448833 29.2034571 212 44 Z " fill="#F6F6F7" transform="translate(0,0)"/>
<path d="M0 0 C2.0395424 1.20396342 4.07290096 2.41793183 6.10595703 3.6328125 C12.09661231 7.20058628 18.15826888 10.64431595 24.21533203 14.09765625 C25.42148083 14.78586636 26.62761681 15.47409893 27.83374023 16.16235352 C32.12733148 18.61179415 36.42210804 21.05915352 40.71697998 23.50634766 C56.52609269 32.51468254 72.30840678 41.56449931 88.00048828 50.77587891 C90.97188266 52.51302485 93.95217706 54.23409343 96.93408203 55.953125 C117.72411999 67.98901132 134.36905679 80.66348714 142.17626953 104.390625 C144.37507436 113.71781322 144.06379179 123.26470924 144.07983398 132.78588867 C144.08610911 134.42950582 144.09275682 136.07312158 144.0997467 137.71673584 C144.12066077 143.08718908 144.13113566 148.45764221 144.14111328 153.828125 C144.14516526 155.6854739 144.14928231 157.54282266 144.15346336 159.40017128 C144.17248546 168.12788403 144.18672395 176.85558847 144.19507533 185.58331794 C144.20484352 195.62264712 144.23116475 205.6617556 144.27157623 215.70100707 C144.30182606 223.48563348 144.31655249 231.27019691 144.31985635 239.05488092 C144.32219618 243.69315796 144.3310173 248.3311984 144.35631752 252.96941185 C144.37976005 257.33703727 144.3837672 261.70427293 144.37355614 266.07194519 C144.37306462 267.66412981 144.37927012 269.25633472 144.39311218 270.84845924 C144.55403003 290.47385278 138.7922655 309.03675326 124.90283203 323.47265625 C118.15797794 330.20183536 110.56855765 334.92833262 102.34033203 339.59765625 C101.04977297 340.34050893 99.75982451 341.08442334 98.47045898 341.8293457 C95.86153856 343.33504252 93.24973352 344.83552083 90.63525391 346.33154297 C85.26666668 349.40631371 79.92997461 352.53548972 74.59033203 355.66015625 C72.64526746 356.794696 70.69995568 357.92881203 68.75439453 359.0625 C67.79694336 359.62050293 66.83949219 360.17850586 65.85302734 360.75341797 C64.87946289 361.3207666 63.90589844 361.88811523 62.90283203 362.47265625 C46.63767748 371.94676828 46.63767748 371.94676828 30.40283203 381.47265625 C-18.71724504 410.40053264 -18.71724504 410.40053264 -29.09716797 414.47265625 C-29.89380859 414.79105469 -30.69044922 415.10945313 -31.51123047 415.4375 C-47.36611919 420.76336819 -65.24461299 418.06860938 -79.90966797 410.84765625 C-86.37545121 407.53557934 -92.60793548 403.87486015 -98.80029297 400.08203125 C-104.10274297 396.84136161 -109.47668281 393.72380357 -114.84716797 390.59765625 C-115.88639404 389.99211914 -116.92562012 389.38658203 -117.99633789 388.76269531 C-123.38321084 385.62634378 -128.77632358 382.5010981 -134.17578125 379.38647461 C-143.23465273 374.16005029 -152.23505751 368.83889587 -161.22406006 363.49334717 C-168.78743096 358.99779974 -176.38250699 354.5655596 -184.03466797 350.22265625 C-187.39106858 348.30987922 -190.74494399 346.39274284 -194.09716797 344.47265625 C-194.98082031 343.96750488 -195.86447266 343.46235352 -196.77490234 342.94189453 C-206.68297965 337.24778171 -216.13073264 331.79646437 -224.09716797 323.47265625 C-224.85900391 322.74175781 -225.62083984 322.01085937 -226.40576172 321.2578125 C-231.09802784 316.50224431 -234.45402963 311.50823569 -237.47216797 305.59765625 C-237.7939502 304.97431396 -238.11573242 304.35097168 -238.44726562 303.70874023 C-243.93453033 292.32360906 -244.53602894 280.80985 -244.48535156 268.41992188 C-244.48942514 266.73320681 -244.4947714 265.04649441 -244.50128174 263.35978699 C-244.51486774 258.81224869 -244.509693 254.26491635 -244.50014448 249.7173748 C-244.49250241 244.93840898 -244.49960604 240.15945975 -244.50430298 235.38049316 C-244.50974736 227.35795963 -244.50260361 219.33550918 -244.48828125 211.31298828 C-244.47195729 202.06299063 -244.47724674 192.81319142 -244.49376047 183.56319857 C-244.50741299 175.59424035 -244.50927664 167.62534156 -244.50144446 159.65637541 C-244.49678859 154.90872671 -244.49608525 150.16117101 -244.50605392 145.41352844 C-244.51477636 140.94821789 -244.50860621 136.48316099 -244.49137115 132.01787758 C-244.48743431 130.38777905 -244.48849174 128.75765885 -244.49515915 127.1275692 C-244.56994302 106.97205471 -239.16883833 89.88884175 -224.95800781 75.18041992 C-217.10368207 67.97220573 -208.1078279 62.46870193 -198.84716797 57.28515625 C-197.13440154 56.31175325 -195.42164431 55.33833341 -193.70956421 54.36372375 C-191.96982292 53.37420349 -190.22832151 52.38777993 -188.48681641 51.40136719 C-183.29133018 48.44513403 -178.13119726 45.42942139 -172.97216797 42.41015625 C-170.99433287 41.25515784 -169.01646829 40.10020991 -167.03857422 38.9453125 C-164.04458171 37.19573054 -161.05091132 35.44560075 -158.05761719 33.69482422 C-146.74886126 27.08074583 -135.42722625 20.49396719 -124.03881836 14.01782227 C-118.3160237 10.75793403 -112.62694856 7.44440072 -106.94921875 4.10668945 C-76.30105051 -13.8900037 -76.30105051 -13.8900037 -65.09716797 -16.52734375 C-63.44394531 -17.04361328 -63.44394531 -17.04361328 -61.75732422 -17.5703125 C-39.11579849 -23.4904553 -18.7292738 -10.94985135 0 0 Z M-90.09716797 11.47265625 C-93.82679522 13.69553891 -97.56059023 15.91137808 -101.2946167 18.12686157 C-103.04561279 19.16665561 -104.79529698 20.20863314 -106.54492188 21.25073242 C-115.23783664 26.41972192 -124.02573722 31.39941573 -132.86767578 36.30981445 C-142.2434245 41.52576364 -151.50629017 46.92494932 -160.76123047 52.3515625 C-165.04310174 54.8617026 -169.34282271 57.33571035 -173.65966797 59.78515625 C-180.87848556 63.89513999 -188.00483159 68.14894297 -195.09716797 72.47265625 C-196.10005859 73.08109375 -197.10294922 73.68953125 -198.13623047 74.31640625 C-211.78084932 82.77222638 -223.82719217 92.64742146 -227.68980694 108.97829342 C-229.22701539 117.56357751 -229.38762479 126.02465216 -229.37182617 134.71508789 C-229.37618313 136.31475561 -229.38136953 137.91442125 -229.38731384 139.51408386 C-229.40060576 143.82391563 -229.40129381 148.13365919 -229.39875054 152.44350743 C-229.39767466 156.05426173 -229.40257962 159.66499862 -229.40735596 163.27574915 C-229.41841608 171.79785991 -229.41890757 180.31992657 -229.4128418 188.84204102 C-229.40679731 197.60922171 -229.41913312 206.37624212 -229.44041187 215.14339548 C-229.45806548 222.69704805 -229.46402351 230.25064976 -229.46077412 237.80432218 C-229.45896795 242.30435172 -229.46153105 246.80426674 -229.47548866 251.30427742 C-229.48812473 255.53565437 -229.48606869 259.76678218 -229.47307777 263.99815559 C-229.47072541 265.54321377 -229.47339816 267.08828982 -229.4817009 268.63332748 C-229.56656413 285.66397938 -225.77784445 300.51303381 -213.67919922 313.11328125 C-205.0781782 320.97261059 -194.76334031 326.53405383 -184.69482422 332.26953125 C-178.72898959 335.66989414 -172.81046377 339.14951001 -166.89160156 342.63064575 C-155.56807241 349.28969525 -144.20573542 355.87643981 -132.81542969 362.4206543 C-126.37970035 366.1277027 -120.02717679 369.92934073 -113.72998047 373.8671875 C-111.20320138 375.40799789 -108.64526668 376.82953859 -106.03466797 378.22265625 C-99.71999996 381.59357461 -93.62962956 385.33160064 -87.52856445 389.07128906 C-71.87742715 398.58311555 -56.43063667 404.67898717 -37.85107422 401.03173828 C-26.23482399 398.04627795 -16.14747648 391.81100413 -6.09716797 385.47265625 C-3.80829405 384.05142808 -1.5150544 382.63741596 0.77783203 381.22265625 C2.16615234 380.34867187 2.16615234 380.34867187 3.58251953 379.45703125 C6.36952499 377.79138564 9.17464525 376.23096378 12.03173828 374.69140625 C18.12716905 371.39005826 24.043023 367.82284552 29.96533203 364.22265625 C38.17450427 359.26005961 46.43036614 354.43646632 54.84716797 349.83569336 C60.30310575 346.84248777 65.57253125 343.62641061 70.84814453 340.32421875 C73.8790004 338.48710151 76.95427434 336.81030132 80.09033203 335.16015625 C109.02283023 319.83809734 109.02283023 319.83809734 126.34033203 293.03515625 C128.13454215 287.12150408 129.02807538 281.80111679 129.04327393 275.60543823 C129.04624505 274.92697409 129.04921617 274.24850994 129.05227733 273.54948628 C129.06092811 271.28281547 129.06246951 269.01619771 129.06396484 266.74951172 C129.06859567 265.12132149 129.07362069 263.49313235 129.07901001 261.86494446 C129.09211262 257.44522183 129.09857508 253.02551437 129.10302067 248.60577536 C129.10595554 245.84124772 129.11006119 243.0767242 129.11452484 240.31219864 C129.12819567 231.65335353 129.13786371 222.99451787 129.14172673 214.33566272 C129.14620315 204.35799373 129.16373345 194.38046203 129.19272733 184.40283477 C129.21438717 176.67948087 129.22443335 168.95616546 129.22576785 161.23278153 C129.22681303 156.62532717 129.23265912 152.01800192 129.25058746 147.41057968 C129.26714214 143.07178985 129.269188 138.73322518 129.26044846 134.3944149 C129.25968196 132.80904344 129.26396925 131.22365951 129.27390671 129.63831902 C129.36349946 114.44442981 126.74621036 98.78996909 115.87939453 87.2265625 C101.78454184 74.7194699 84.29150299 65.84784703 67.92236328 56.7265625 C62.81188728 53.87288879 57.75349319 50.93040849 52.69189453 47.99121094 C47.88811577 45.20185786 43.07998247 42.42035103 38.26611328 39.6484375 C37.69342712 39.31859863 37.12074097 38.98875977 36.53070068 38.64892578 C33.70817473 37.02332195 30.88521865 35.39847453 28.06152344 33.77490234 C23.22038347 30.98622036 18.39836889 28.17760012 13.62548828 25.2734375 C10.82668119 23.58139468 8.03937245 22.00618312 5.09033203 20.59375 C0.3332895 18.28553573 -4.09074705 15.45503105 -8.58813477 12.68359375 C-38.25868463 -5.54729977 -60.36682574 -6.48723172 -90.09716797 11.47265625 Z " fill="#040404" transform="translate(300.09716796875,50.52734375)"/>
<path d="M0 0 C10.18875 -0.061875 20.3775 -0.12375 30.875 -0.1875 C35.67200439 -0.22846802 35.67200439 -0.22846802 40.56591797 -0.27026367 C43.12467065 -0.27903248 45.68342754 -0.28667548 48.2421875 -0.29296875 C49.55131104 -0.30831665 50.86043457 -0.32366455 52.20922852 -0.33947754 C65.46688545 -0.34323893 75.07993214 2.47083677 84.8203125 11.73046875 C92.76981468 20.45894225 94.51639841 29.56311624 94.26953125 41.140625 C93.56874997 51.17500046 89.41420019 58.32186661 82 65 C75.32552693 70 75.32552693 70 72 70 C74.30759699 73.96735978 76.61895078 77.9324988 78.93359375 81.89575195 C79.71812203 83.24022122 80.50167627 84.58525942 81.28417969 85.9309082 C85.34137132 92.90647618 89.39855047 99.82602659 93.99951172 106.46313477 C95 108 95 108 95 109 C70.07307491 111.35524295 70.07307491 111.35524295 63.87207031 107.76953125 C60.69979662 104.46889967 59.22061444 100.44564885 57.78613281 96.16064453 C56.45938164 92.51413899 54.47067114 89.2422368 52.5625 85.875 C50.47146453 82.00224181 48.5492091 78.12603428 47 74 C45.02 74.495 45.02 74.495 43 75 C37.72 75 32.44 75 27 75 C27 86.22 27 97.44 27 109 C18.09 109 9.18 109 0 109 C0 73.03 0 37.06 0 0 Z " fill="#030303" transform="translate(143,204)"/>
<path d="M0 0 C1.87559349 -0.01485695 1.87559349 -0.01485695 3.78907776 -0.03001404 C5.16192726 -0.02577652 6.5347758 -0.02121872 7.90762329 -0.01637268 C9.36349511 -0.02207932 10.81936245 -0.02904472 12.27522278 -0.03717041 C16.21955845 -0.05508623 20.16367145 -0.05393625 24.10803556 -0.04822803 C27.40562937 -0.04513336 30.70318057 -0.05123182 34.0007683 -0.05726677 C41.78339546 -0.07130569 49.56591284 -0.06975647 57.34854126 -0.05836487 C65.36591104 -0.04688866 73.38294611 -0.06095224 81.40027177 -0.08776134 C88.29390289 -0.10994619 95.18742916 -0.11654933 102.08109343 -0.11068493 C106.19382659 -0.10732025 110.30634531 -0.10969749 114.41904831 -0.12693596 C118.28846113 -0.14244721 122.15737986 -0.13840377 126.02677345 -0.11963081 C127.44246771 -0.11595619 128.85819891 -0.11902047 130.27385902 -0.1295166 C139.20204691 -0.19063093 145.53055907 0.23316397 152.66397095 5.9931488 C160.71351516 15.60986091 160.08292302 26.26469323 159.96865845 38.1103363 C159.96305468 39.8238284 159.95878828 41.53732533 159.95579529 43.25082397 C159.9444079 47.73399919 159.91499419 52.21687715 159.88168335 56.69993591 C159.85084993 61.28526286 159.83726174 65.87063842 159.82217407 70.45603943 C159.7901179 79.43338269 159.73899651 88.41050654 159.6756897 97.38768005 C155.7156897 97.38768005 151.7556897 97.38768005 147.6756897 97.38768005 C147.6756897 78.24768005 147.6756897 59.10768005 147.6756897 39.38768005 C95.8656897 39.38768005 44.0556897 39.38768005 -9.3243103 39.38768005 C-9.3243103 58.52768005 -9.3243103 77.66768005 -9.3243103 97.38768005 C-13.6143103 97.38768005 -17.9043103 97.38768005 -22.3243103 97.38768005 C-22.39401253 87.50360899 -22.44722393 77.619597 -22.47974682 67.73532963 C-22.4953611 63.14499249 -22.51652143 58.55482429 -22.55062866 53.96458435 C-22.58337395 49.52956941 -22.60119515 45.09471633 -22.60894203 40.65958977 C-22.61445843 38.97281283 -22.62523028 37.28604412 -22.64150047 35.59933662 C-22.83727978 14.45008817 -22.83727978 14.45008817 -16.0118103 7.01268005 C-15.45880249 6.38619568 -14.90579468 5.7597113 -14.33602905 5.11424255 C-9.90431601 1.31071408 -5.77453037 0.01295787 0 0 Z " fill="#060606" transform="translate(181.32431030273438,93.61231994628906)"/>
<path d="M0 0 C8.58 0 17.16 0 26 0 C26 13.86 26 27.72 26 42 C41.51 42 57.02 42 73 42 C73 28.14 73 14.28 73 0 C81.91 0 90.82 0 100 0 C100 35.97 100 71.94 100 109 C91.09 109 82.18 109 73 109 C73 94.81 73 80.62 73 66 C57.49 66 41.98 66 26 66 C26 80.19 26 94.38 26 109 C17.42 109 8.84 109 0 109 C0 73.03 0 37.06 0 0 Z " fill="#020202" transform="translate(256,204)"/>
<path d="M0 0 C3.13644726 2.02270882 6.32989751 3.94969106 9.52734375 5.87402344 C10.15406982 6.25276611 10.7807959 6.63150879 11.42651367 7.02172852 C16.08107829 9.80568163 20.85840432 12.22517816 25.73828125 14.59277344 C31.35479787 17.47884243 36.7049618 20.81903169 42.08740234 24.11572266 C44.64115121 25.67614931 47.2091742 27.21248069 49.77734375 28.74902344 C51.13151042 29.56152344 52.48567708 30.37402344 53.83984375 31.18652344 C52.84984375 32.17652344 52.84984375 32.17652344 51.83984375 33.18652344 C50.8014181 35.50301143 49.79764625 37.83555368 48.83984375 40.18652344 C44.93351465 39.60780802 42.86054969 37.61782334 39.83984375 35.18652344 C35.99860144 33.30719812 32.89119753 32.9306288 28.63578796 32.91236877 C27.38676697 32.90239365 26.13774597 32.89241852 24.85087585 32.88214111 C23.47439588 32.8812454 22.09791574 32.88058179 20.72143555 32.88012695 C19.26571224 32.87250188 17.80999296 32.86407378 16.35427856 32.85490417 C12.40580849 32.83298625 8.45741585 32.8241639 4.50889182 32.81907773 C2.03986748 32.81543088 -0.42913667 32.8091891 -2.89815331 32.80207634 C-11.51796736 32.77759099 -20.13772131 32.76453198 -28.75756836 32.76098633 C-36.78234202 32.75735202 -44.806733 32.72746202 -52.83138973 32.68558174 C-59.72923631 32.65084903 -66.62695624 32.63543737 -73.52488965 32.63474029 C-77.64106984 32.63394847 -81.75686005 32.62525401 -85.8729496 32.59674263 C-89.74650306 32.57051054 -93.61934466 32.56838478 -97.49294662 32.58439827 C-98.91026936 32.58620873 -100.32763351 32.57955833 -101.74486732 32.56357956 C-109.98537135 32.47637484 -115.70353179 32.84595268 -122.16015625 38.18652344 C-123.15015625 38.84652344 -124.14015625 39.50652344 -125.16015625 40.18652344 C-125.84765625 37.99902344 -125.84765625 37.99902344 -126.16015625 35.18652344 C-125.17826438 33.50912482 -124.17881854 31.84184966 -123.16015625 30.18652344 C-123.51471059 28.0638926 -123.51471059 28.0638926 -124.16015625 26.18652344 C-123.42418213 25.78880737 -123.42418213 25.78880737 -122.67333984 25.38305664 C-112.71258569 19.98640237 -102.83898797 14.47097947 -93.09765625 8.68652344 C-92.18081055 8.14423096 -91.26396484 7.60193848 -90.31933594 7.04321289 C-85.89693535 4.42312409 -81.49091814 1.78064693 -77.109375 -0.90722656 C-50.08807792 -17.31552873 -26.56729162 -17.26873955 0 0 Z " fill="#F3F3F3" transform="translate(289.16015625,61.8134765625)"/>
<path d="M0 0 C0.70874456 0.00446144 1.41748913 0.00892289 2.1477108 0.01351953 C2.89938215 0.01039954 3.6510535 0.00727956 4.42550278 0.00406504 C6.9574957 -0.00394582 9.48925102 0.00242059 12.02124596 0.00869775 C13.83108219 0.00598925 15.64091732 0.00242912 17.45075035 -0.00192237 C22.37625629 -0.01106549 27.30167875 -0.00749422 32.2271862 -0.0011642 C37.37257176 0.00388587 42.51794998 -0.00079288 47.6633358 -0.00393653 C56.30543875 -0.00757908 64.94750756 -0.00276951 73.58960533 0.00674462 C83.59277075 0.01762972 93.59585465 0.01410435 103.5990181 0.00309181 C112.17482198 -0.00597284 120.75060126 -0.00727037 129.32640839 -0.00203085 C134.45392888 0.00109338 139.58141101 0.00148581 144.70892906 -0.00510383 C149.52859644 -0.01086474 154.34815832 -0.0069035 159.16781425 0.00468469 C160.94078712 0.00733801 162.7137688 0.00655479 164.4867382 0.00215936 C166.89891563 -0.00327115 169.31075075 0.00350733 171.72290611 0.01351953 C172.78602296 0.00682736 172.78602296 0.00682736 173.87061691 0 C178.70700827 0.03918662 178.70700827 0.03918662 180.93530846 2.26748681 C181.23608971 4.32608056 181.23608971 4.32608056 181.24780846 6.70498681 C181.26456627 7.48744775 181.28132408 8.26990869 181.29858971 9.07608056 C180.82781176 11.91593465 180.27506749 12.58707383 177.93530846 14.26748681 C175.43558573 14.55992665 173.18516191 14.66814321 170.68530846 14.64170861 C169.5698288 14.64767022 169.5698288 14.64767022 168.43181419 14.65375227 C165.93278615 14.66339887 163.43432088 14.6515432 160.93530846 14.63980126 C159.1466507 14.64222845 157.3579943 14.64594707 155.56934166 14.65086389 C150.70576448 14.66028649 145.84238805 14.65083596 140.97882652 14.63753176 C135.89530969 14.62623451 130.81180298 14.63032343 125.72827721 14.63227868 C117.19048333 14.6331622 108.65276877 14.62206909 100.11499596 14.60366845 C90.23622484 14.58249995 80.35756995 14.57899061 70.47878075 14.58523041 C60.98592147 14.59092006 51.49310323 14.58528312 42.00024986 14.57405686 C37.95564581 14.56940558 33.91106681 14.56853931 29.8664608 14.57064271 C25.10586329 14.57252283 20.34538451 14.564443 15.58481407 14.54858232 C13.83483941 14.54433054 12.08485273 14.54349489 10.33487511 14.54627252 C7.95155482 14.54948218 5.56859198 14.54044346 3.18530846 14.52818322 C2.48794075 14.53196255 1.79057304 14.53574187 1.07207298 14.53963572 C-2.54123918 14.50661033 -3.96425045 14.33444754 -7.06469154 12.26748681 C-7.42797279 9.95498681 -7.42797279 9.95498681 -7.37719154 7.26748681 C-7.37332436 6.38061181 -7.36945717 5.49373681 -7.36547279 4.57998681 C-6.75830492 -0.08810908 -4.10927894 0.03329523 0 0 Z " fill="#070707" transform="translate(163.0646915435791,358.7325131893158)"/>
<path d="M0 0 C0.70874456 0.00446144 1.41748913 0.00892289 2.1477108 0.01351953 C2.89938215 0.01039954 3.6510535 0.00727956 4.42550278 0.00406504 C6.9574957 -0.00394582 9.48925102 0.00242059 12.02124596 0.00869775 C13.83108219 0.00598925 15.64091732 0.00242912 17.45075035 -0.00192237 C22.37625629 -0.01106549 27.30167875 -0.00749422 32.2271862 -0.0011642 C37.37257176 0.00388587 42.51794998 -0.00079288 47.6633358 -0.00393653 C56.30543875 -0.00757908 64.94750756 -0.00276951 73.58960533 0.00674462 C83.59277075 0.01762972 93.59585465 0.01410435 103.5990181 0.00309181 C112.17482198 -0.00597284 120.75060126 -0.00727037 129.32640839 -0.00203085 C134.45392888 0.00109338 139.58141101 0.00148581 144.70892906 -0.00510383 C149.52859644 -0.01086474 154.34815832 -0.0069035 159.16781425 0.00468469 C160.94078712 0.00733801 162.7137688 0.00655479 164.4867382 0.00215936 C166.89891563 -0.00327115 169.31075075 0.00350733 171.72290611 0.01351953 C172.78602296 0.00682736 172.78602296 0.00682736 173.87061691 0 C178.70700827 0.03918662 178.70700827 0.03918662 180.93530846 2.26748681 C181.16577721 4.61514306 181.16577721 4.61514306 181.12280846 7.32998681 C181.11314049 8.67770165 181.11314049 8.67770165 181.10327721 10.05264306 C180.93530846 12.26748681 180.93530846 12.26748681 179.93530846 13.26748681 C177.54922675 13.36957045 175.19193781 13.40636501 172.80519676 13.40119958 C171.67284604 13.40459791 171.67284604 13.40459791 170.51761955 13.4080649 C167.9687643 13.41443361 165.41996183 13.41357371 162.87109947 13.41275048 C161.05155938 13.41574018 159.23201992 13.41914227 157.41248131 13.42292809 C152.45594936 13.43179143 147.49943466 13.43410718 142.54289556 13.43474388 C138.41241647 13.43569101 134.28194145 13.43936702 130.15146393 13.44291598 C120.41070885 13.45106937 110.66996303 13.4534994 100.92920494 13.45278955 C90.86414979 13.45218848 80.79914819 13.46274406 70.7341066 13.47853321 C62.10737243 13.49158635 53.4806558 13.49697438 44.85391182 13.49633414 C39.69507178 13.4960785 34.53627929 13.49896584 29.37744904 13.50951219 C24.52743512 13.51915585 19.67751459 13.51929816 14.82749748 13.51199555 C13.0432344 13.51094505 11.25896562 13.51333997 9.47471237 13.51935601 C7.04716446 13.52701353 4.61994408 13.52247302 2.19240379 13.51472497 C1.47908616 13.51986853 0.76576853 13.5250121 0.03083521 13.53031152 C-4.8364203 13.49575806 -4.8364203 13.49575806 -7.06469154 11.26748681 C-7.33031654 9.17373681 -7.33031654 9.17373681 -7.31469154 6.76748681 C-7.31984779 5.97342431 -7.32500404 5.17936181 -7.33031654 4.36123681 C-6.75561731 -0.16874536 -3.90607344 0.03164877 0 0 Z " fill="#020202" transform="translate(163.0646915435791,331.7325131893158)"/>
<path d="M0 0 C1.08528488 -0.00563965 2.17056976 -0.0112793 3.28874207 -0.01708984 C5.08261101 -0.01101715 5.08261101 -0.01101715 6.91271973 -0.00482178 C8.1680098 -0.00832642 9.42329987 -0.01183105 10.71662903 -0.01544189 C14.16492109 -0.02457832 17.6130938 -0.02101654 21.06138802 -0.01468372 C24.66527764 -0.00963018 28.26915686 -0.01431337 31.87304688 -0.01745605 C37.92584066 -0.02109759 43.97858568 -0.0162917 50.03137207 -0.0067749 C57.03531283 0.00411003 64.03913715 0.00058458 71.04307508 -0.01042771 C77.04990115 -0.01949527 83.05669212 -0.02078848 89.06352282 -0.01555037 C92.65403687 -0.01242773 96.24449615 -0.01202935 99.83500671 -0.01862335 C103.83624195 -0.02545798 107.83727555 -0.01599278 111.83850098 -0.00482178 C113.0344136 -0.00887024 114.23032623 -0.0129187 115.46247864 -0.01708984 C116.54776352 -0.0114502 117.6330484 -0.00581055 118.7512207 0 C120.17149441 0.00113108 120.17149441 0.00113108 121.62046051 0.002285 C123.87561035 0.25396729 123.87561035 0.25396729 125.87561035 2.25396729 C126.44087339 9.26322894 126.44087339 9.26322894 124.67832279 12.35245705 C122.87561035 14.25396729 122.87561035 14.25396729 120.51303005 14.75174522 C119.10520055 14.75011092 119.10520055 14.75011092 117.66893005 14.7484436 C116.59068466 14.75683258 115.51243927 14.76522156 114.40151978 14.77386475 C113.21855316 14.76262573 112.03558655 14.75138672 110.81677246 14.73980713 C109.57108994 14.74360382 108.32540741 14.74740051 107.04197693 14.75131226 C103.62441428 14.75745876 100.20781634 14.74569726 96.79036784 14.72540617 C93.21718986 14.70785069 89.64402836 14.71135993 86.07081604 14.71212769 C80.07100682 14.71025429 74.07139985 14.69288417 68.07165527 14.66558838 C61.1295977 14.63412277 54.18776156 14.62359264 47.24563783 14.62505949 C40.57300927 14.62627909 33.900453 14.61607788 27.22784615 14.59947586 C24.38537596 14.59240499 21.54293136 14.58874863 18.7004528 14.58768845 C14.73523975 14.58531109 10.77021188 14.56590649 6.80505371 14.54449463 C5.62006287 14.545401 4.43507202 14.54630737 3.21417236 14.54724121 C1.60103401 14.53444626 1.60103401 14.53444626 -0.04469299 14.52139282 C-0.98286897 14.51804113 -1.92104494 14.51468945 -2.88765049 14.51123619 C-5.12438965 14.25396729 -5.12438965 14.25396729 -7.12438965 12.25396729 C-7.39001465 9.94146729 -7.39001465 9.94146729 -7.37438965 7.25396729 C-7.3795459 6.36709229 -7.38470215 5.48021729 -7.39001465 4.56646729 C-6.84556889 -0.17341344 -4.07623551 0.00324623 0 0 Z " fill="#020202" transform="translate(163.1243896484375,385.74603271484375)"/>
<path d="M0 0 C4.62 -0.0825 9.24 -0.165 14 -0.25 C16.16175781 -0.30462402 16.16175781 -0.30462402 18.3671875 -0.36035156 C25.73285353 -0.42391939 30.81273358 -0.1348682 37 4 C41.23232815 8.55789185 42.37133954 11.52768041 42.2734375 17.6171875 C41.83724924 21.41825659 40.54973728 24.15464101 38 27 C35.72997257 28.66333858 33.56006911 29.76737413 31 31 C30.34 31.33 29.68 31.66 29 32 C26.82175039 32.08559118 24.64084745 32.10713412 22.4609375 32.09765625 C21.28837402 32.09515869 20.11581055 32.09266113 18.90771484 32.09008789 C16.664021 32.07643188 16.664021 32.07643188 14.375 32.0625 C9.63125 32.041875 4.8875 32.02125 0 32 C0 21.44 0 10.88 0 0 Z " fill="#F5F5F5" transform="translate(170,226)"/>
<path d="M0 0 C3.33340422 0.3104173 4.70250547 1.30081938 7.3515625 3.31640625 C11.92114884 6.71782766 16.63758334 9.64173029 21.57421875 12.48046875 C23.7265625 14.25390625 23.7265625 14.25390625 24.64453125 16.81640625 C24.7265625 19.25390625 24.7265625 19.25390625 22.9765625 21.62890625 C19.47863374 24.73600498 15.42452252 27.0954005 11.44921875 29.53515625 C9.11601805 31.00805196 6.96415639 32.56268854 4.7890625 34.25390625 C1.7265625 36.25390625 1.7265625 36.25390625 -0.40234375 35.94140625 C-2.2734375 35.25390625 -2.2734375 35.25390625 -3.2734375 34.25390625 C-3.69921875 31.98046875 -3.69921875 31.98046875 -3.2734375 29.25390625 C-1.34388815 27.45299353 0.37344552 26.07764656 2.5390625 24.62890625 C7.38774647 21.23741355 7.38774647 21.23741355 11.7265625 17.25390625 C10.72753906 16.54363281 9.72851562 15.83335937 8.69921875 15.1015625 C7.39579792 14.1732268 6.09241443 13.24483868 4.7890625 12.31640625 C4.12970703 11.84783203 3.47035156 11.37925781 2.79101562 10.89648438 C-2.16015625 7.3671875 -2.16015625 7.3671875 -3.2734375 6.25390625 C-3.3984375 3.75390625 -3.3984375 3.75390625 -3.2734375 1.25390625 C-2.2734375 0.25390625 -2.2734375 0.25390625 0 0 Z " fill="#080808" transform="translate(273.2734375,149.74609375)"/>
<path d="M0 0 C0.763125 0.20625 1.52625 0.4125 2.3125 0.625 C2.5703125 2.90625 2.5703125 2.90625 2.3125 5.625 C0.5546875 7.46875 0.5546875 7.46875 -1.8125 9.125 C-5.58766413 11.81972995 -9.14841064 14.62959683 -12.6875 17.625 C-10.56359042 19.10575386 -8.43843595 20.58466056 -6.3125 22.0625 C-5.70921875 22.48337891 -5.1059375 22.90425781 -4.484375 23.33789062 C-1.18675179 25.6470743 -1.18675179 25.6470743 2.3125 27.625 C2.4375 30.5 2.4375 30.5 2.3125 33.625 C1.6525 34.285 0.9925 34.945 0.3125 35.625 C-2.64111741 35.2521143 -4.71554266 34.1396989 -7.1484375 32.48046875 C-8.10363281 31.83561523 -8.10363281 31.83561523 -9.078125 31.17773438 C-9.73296875 30.72720703 -10.3878125 30.27667969 -11.0625 29.8125 C-12.03316406 29.15411133 -12.03316406 29.15411133 -13.0234375 28.48242188 C-14.30455765 27.61327484 -15.58167284 26.73819196 -16.85449219 25.85693359 C-18.56110718 24.70994648 -20.33000283 23.65716366 -22.1015625 22.61328125 C-24.6875 20.625 -24.6875 20.625 -25.5625 17.875 C-25.60375 17.1325 -25.645 16.39 -25.6875 15.625 C-19.98709046 10.84635881 -14.27107505 6.56066592 -7.81640625 2.8515625 C-2.30805807 -0.32205461 -2.30805807 -0.32205461 0 0 Z " fill="#090909" transform="translate(227.6875,150.375)"/>
<path d="M0 0 C1.99954746 -0.04254356 4.00041636 -0.04080783 6 0 C7 1 7 1 7.2890625 3.4140625 C6.88443622 8.43361549 5.16529932 12.69491092 3.375 17.375 C3.01325684 18.34147461 2.65151367 19.30794922 2.27880859 20.30371094 C1.5432381 22.26674645 0.80383968 24.22835203 0.06054688 26.18847656 C-0.91044473 28.76258783 -1.85925846 31.34326909 -2.796875 33.9296875 C-3.32277624 35.36984296 -3.84880867 36.80995051 -4.375 38.25 C-4.73198975 39.2407251 -4.73198975 39.2407251 -5.09619141 40.25146484 C-6.12719331 43.03227099 -6.87528368 44.87528368 -9 47 C-11.625 47.125 -11.625 47.125 -14 47 C-15.39682402 42.453815 -14.42321643 39.1022122 -12.9375 34.75 C-12.71070557 34.0583374 -12.48391113 33.3666748 -12.25024414 32.65405273 C-11.5148226 30.43080725 -10.75962196 28.21508449 -10 26 C-9.74734375 25.25443848 -9.4946875 24.50887695 -9.234375 23.74072266 C-6.48910121 15.66422521 -3.64987539 7.72089025 0 0 Z " fill="#0A0A0A" transform="translate(254,144)"/>
<path d="M0 0 C2.5 0.25 2.5 0.25 4.5 2.25 C4.125 5.375 4.125 5.375 3.5 8.25 C0.625 8.875 0.625 8.875 -2.5 9.25 C-4.5 7.25 -4.5 7.25 -4.75 4.75 C-4.40058445 1.25584452 -3.49415548 0.34941555 0 0 Z " fill="#F1F1F1" transform="translate(182.5,109.75)"/>
<path d="M0 0 C2.5625 0.1875 2.5625 0.1875 4.5625 2.1875 C4.23278521 5.48464793 3.9398161 6.8101839 1.5625 9.1875 C-1.37203261 8.82068342 -2.30187246 8.32312754 -4.4375 6.1875 C-3.71780303 0.28598485 -3.71780303 0.28598485 0 0 Z " fill="#E8E8E8" transform="translate(219.4375,109.8125)"/>
<path d="M0 0 C2.5625 0.1875 2.5625 0.1875 4.5625 2.1875 C4.1875 5.3125 4.1875 5.3125 3.5625 8.1875 C1.1875 8.8125 1.1875 8.8125 -1.4375 9.1875 C-3.4375 7.1875 -3.4375 7.1875 -3.625 4.125 C-3.37828947 0.25986842 -3.37828947 0.25986842 0 0 Z " fill="#F0F0F0" transform="translate(200.4375,109.8125)"/>
<path d="M0 0 C0 0.99 0 1.98 0 3 C-2.3359375 4.82421875 -2.3359375 4.82421875 -5.375 6.6875 C-6.37273437 7.31011719 -7.37046875 7.93273437 -8.3984375 8.57421875 C-11 10 -11 10 -13 10 C-13 10.66 -13 11.32 -13 12 C-15.97 12.66 -18.94 13.32 -22 14 C-17.70841448 10.31904088 -13.06453565 7.56257379 -8.1875 4.75 C-7.39923828 4.29109375 -6.61097656 3.8321875 -5.79882812 3.359375 C-3.86795196 2.23595614 -1.93500474 1.11628756 0 0 Z " fill="#E2E2E3" transform="translate(191,73)"/>
<path d="M0 0 C0.66 0 1.32 0 2 0 C2 0.66 2 1.32 2 2 C3.98 1.67 5.96 1.34 8 1 C8 1.99 8 2.98 8 4 C6.35 4.66 4.7 5.32 3 6 C3 5.34 3 4.68 3 4 C2.01 4.33 1.02 4.66 0 5 C-0.5625 3.0625 -0.5625 3.0625 -1 1 C-0.67 0.67 -0.34 0.34 0 0 Z " fill="#EEEEEE" transform="translate(271,441)"/>
<path d="M0 0 C2.2477975 2.05233685 3.0022242 3.00667261 4 6 C2.1875 6.625 2.1875 6.625 0 7 C-0.99 6.34 -1.98 5.68 -3 5 C-3 4.01 -3 3.02 -3 2 C-2.01 2 -1.02 2 0 2 C0 1.34 0 0.68 0 0 Z " fill="#F0F0F0" transform="translate(198,295)"/>
<path d="M0 0 C2.6875 0.875 2.6875 0.875 5 2 C2.82575883 4.50037734 1.26954202 5.43628586 -2 6 C-2.33 4.68 -2.66 3.36 -3 2 C-2.01 1.34 -1.02 0.68 0 0 Z " fill="#EFEFEF" transform="translate(309,74)"/>
<path d="M0 0 C0.66 0.33 1.32 0.66 2 1 C1.67 1.66 1.34 2.32 1 3 C1.66 3 2.32 3 3 3 C3 3.66 3 4.32 3 5 C1.02 5.33 -0.96 5.66 -3 6 C-2.42655063 3.13275314 -2.1385485 2.1385485 0 0 Z " fill="#E3E3E3" transform="translate(183,113)"/>
<path d="M0 0 C0.66 1.32 1.32 2.64 2 4 C-0.375 4.625 -0.375 4.625 -3 5 C-3.66 4.34 -4.32 3.68 -5 3 C-3.35 2.01 -1.7 1.02 0 0 Z " fill="#E8E8E8" transform="translate(205,65)"/>
</svg>
